<svg width="81" height="80" viewBox="0 0 81 80" fill="none" xmlns="http://www.w3.org/2000/svg">
<path fill-rule="evenodd" clip-rule="evenodd" d="M28.6248 0.833252H12.7915C9.64067 0.833252 6.62046 2.07092 4.39588 4.276C2.16734 6.47717 0.916504 9.46558 0.916504 12.5833C0.916504 16.7467 0.916504 22.2418 0.916504 28.2499C0.916504 30.4119 2.68984 32.1666 4.87484 32.1666C7.05984 32.1666 8.83317 30.4119 8.83317 28.2499V12.5833C8.83317 11.5453 9.2488 10.5466 9.99296 9.81417C10.7332 9.07784 11.7425 8.66658 12.7915 8.66658H28.6248C30.8098 8.66658 32.5832 6.91192 32.5832 4.74992C32.5832 2.58792 30.8098 0.833252 28.6248 0.833252ZM0.916504 47.8333V67.4166C0.916504 70.5342 2.16734 73.5227 4.39588 75.7238C6.62046 77.9289 9.64067 79.1666 12.7915 79.1666C16.065 79.1666 20.154 79.1666 24.6665 79.1666C26.8515 79.1666 28.6248 77.4119 28.6248 75.2499C28.6248 73.0879 26.8515 71.3333 24.6665 71.3333H12.7915C11.7425 71.3333 10.7332 70.922 9.99296 70.1857C9.2488 69.4533 8.83317 68.4545 8.83317 67.4166V47.8333C8.83317 45.6712 7.05984 43.9166 4.87484 43.9166C2.68984 43.9166 0.916504 45.6712 0.916504 47.8333ZM52.3748 79.1666H68.2082C71.359 79.1666 74.3792 77.9289 76.6038 75.7238C78.8323 73.5227 80.0832 70.5342 80.0832 67.4166C80.0832 63.2532 80.0832 57.7581 80.0832 51.7499C80.0832 49.5879 78.3098 47.8333 76.1248 47.8333C73.9398 47.8333 72.1665 49.5879 72.1665 51.7499V67.4166C72.1665 68.4545 71.7509 69.4533 71.0067 70.1857C70.2665 70.922 69.2571 71.3333 68.2082 71.3333H52.3748C50.1898 71.3333 48.4165 73.0879 48.4165 75.2499C48.4165 77.4119 50.1898 79.1666 52.3748 79.1666ZM80.0832 28.2499V12.5833C80.0832 9.46558 78.8323 6.47717 76.6038 4.276C74.3792 2.07092 71.359 0.833252 68.2082 0.833252C64.0005 0.833252 58.4469 0.833252 52.3748 0.833252C50.1898 0.833252 48.4165 2.58792 48.4165 4.74992C48.4165 6.91192 50.1898 8.66658 52.3748 8.66658H68.2082C69.2571 8.66658 70.2665 9.07784 71.0067 9.81417C71.7509 10.5466 72.1665 11.5453 72.1665 12.5833V28.2499C72.1665 30.4119 73.9398 32.1666 76.1248 32.1666C78.3098 32.1666 80.0832 30.4119 80.0832 28.2499ZM20.7082 43.9166H60.2915C62.4765 43.9166 64.2498 42.1619 64.2498 39.9999C64.2498 37.8379 62.4765 36.0833 60.2915 36.0833H20.7082C18.5232 36.0833 16.7498 37.8379 16.7498 39.9999C16.7498 42.1619 18.5232 43.9166 20.7082 43.9166Z" fill="black"/>
</svg>
