<svg width="84" height="91" viewBox="0 0 84 91" fill="none" xmlns="http://www.w3.org/2000/svg">
<path d="M70.366 21.835L64.3793 85.1279C64.2368 86.4791 63.2033 87.5021 61.9561 87.5021H22.0622C20.8149 87.5021 19.7815 86.4791 19.6391 85.1279L13.6343 21.835H70.366Z" fill="#FF5975"/>
<path opacity="0.05" d="M70.3662 21.835L64.3794 85.1279C64.237 86.4791 63.2034 87.5021 61.9563 87.5021H22.0624C20.815 87.5021 19.7816 86.4791 19.6392 85.1279L19.0332 78.7001H30.7039C45.8311 78.7001 58.5173 66.3079 60.0496 49.9973L62.7044 21.835L70.3662 21.835Z" fill="black"/>
<path d="M74.072 15.6581V22.1437C74.072 23.5914 72.9849 24.7688 71.6308 24.7688H12.369C11.0149 24.7688 9.92822 23.5914 9.92822 22.1437V15.6581C9.92822 14.2104 11.0149 13.033 12.369 13.033H71.6307C72.9849 13.033 74.072 14.2104 74.072 15.6581Z" fill="#F2556F"/>
<path opacity="0.05" d="M74.072 15.6581V22.1437C74.072 23.5914 72.9849 24.7688 71.6308 24.7688H12.369C11.0149 24.7688 9.92822 23.5914 9.92822 22.1437V19.866H60.762C64.682 19.866 67.978 16.9706 68.8867 13.033H71.6307C72.9849 13.033 74.072 14.2104 74.072 15.6581Z" fill="black"/>
<path d="M28.0524 62.3915C27.7844 62.8195 27.9043 63.2093 28.0031 63.408C28.0948 63.5991 28.3276 63.9354 28.8074 63.9354H37.7184L37.7183 66.9927H28.8074C25.8088 66.9927 24.0309 63.3469 25.7242 60.6717L28.9979 55.4895L26.5426 53.9532C26.0346 53.6398 26.0911 52.8296 26.6414 52.608L32.2928 50.2768L33.5981 49.7341C34.0072 49.5583 34.4588 49.8411 34.5223 50.315L35.7147 58.2793C35.8134 58.9061 35.1926 59.3647 34.6846 59.0513L31.4461 57.0258L28.0524 62.3915ZM55.2017 66.9928H47.3984L47.3984 70.5546C47.3984 71.189 46.721 71.5406 46.2695 71.1354L41.5706 66.9928L40.4982 66.045C40.1525 65.7469 40.1525 65.1813 40.4982 64.8832L46.2695 59.7851C46.7211 59.38 47.3984 59.7316 47.3984 60.366L47.3984 63.9354H55.2017C55.6744 63.9354 55.9072 63.6068 55.9989 63.408C56.0977 63.2093 56.2177 62.8195 55.9425 62.3915L50.016 53.0131L52.4854 51.5074L58.2708 60.6717C59.9712 63.3469 58.2002 66.9928 55.2017 66.9928ZM41.2462 41.5099L36.8506 48.4653L34.5506 46.6997L38.9179 39.7825C40.4066 37.4436 43.5886 37.4436 45.0772 39.7825L46.9893 42.8092L50.4888 40.6233C50.9967 40.3023 51.6176 40.7608 51.5188 41.3876L50.4888 48.3507L50.3406 49.352C50.27 49.8258 49.8185 50.1086 49.4093 49.9328L42.4456 47.0666C41.9023 46.845 41.8388 46.0348 42.3468 45.7137L44.534 44.3456L42.749 41.5175C42.5091 41.143 42.1775 41.0895 42.0011 41.0895C41.8176 41.0895 41.4861 41.143 41.2462 41.5099Z" fill="white"/>
<path d="M69.4932 7.06849V13.033H14.5078V7.06849C14.5078 5.0997 15.9688 3.49756 17.8041 3.49756H66.1968C68.0321 3.49758 69.4932 5.09972 69.4932 7.06849Z" fill="#FF5975"/>
<g opacity="0.05">
<path d="M69.4944 7.07227V13.0397H14.5068V8.66471H59.4144C62.193 8.66471 64.5029 6.40725 64.8421 3.5022H66.1992C68.0243 3.50221 69.4944 5.09477 69.4944 7.07227Z" fill="black"/>
</g>
<path d="M71.6316 11.2831H71.1095V7.06873C71.1095 4.1344 68.9057 1.7478 66.1971 1.7478H17.8049C15.0963 1.7478 12.8925 4.1344 12.8925 7.06873V11.2831H12.3688C10.1319 11.2831 8.31299 13.2458 8.31299 15.6581V22.1437C8.31299 24.5559 10.1319 26.5187 12.3688 26.5187H12.454L18.0353 85.3257C18.2703 87.5636 20.0009 89.2521 22.0627 89.2521H61.9567C64.0185 89.2521 65.7491 87.5636 65.9873 85.306L71.548 26.5187H71.6316C73.8686 26.5187 75.6875 24.5559 75.6875 22.1437V15.6581C75.6875 13.2458 73.8686 11.2831 71.6316 11.2831ZM16.1233 7.06871C16.1233 6.06469 16.8774 5.24779 17.805 5.24779H66.1971C67.1247 5.24779 67.8787 6.06469 67.8787 7.06871V11.2831H16.1233V7.06871ZM62.7754 84.9292C62.7249 85.3983 62.3732 85.7521 61.9567 85.7521H22.0627C21.6383 85.7521 21.2944 85.406 21.2471 84.9488L15.7029 26.5187H68.3003L62.7754 84.9292ZM72.4567 22.1437C72.4567 22.6265 72.086 23.0187 71.6316 23.0187H12.3688C11.9145 23.0187 11.5438 22.6265 11.5438 22.1437V15.6581C11.5438 15.1753 11.9145 14.7831 12.3688 14.7831C47.3415 14.7831 36.5837 14.7831 71.6316 14.7831C72.086 14.7831 72.4567 15.1753 72.4567 15.6581V22.1437Z" fill="#293C66"/>
</svg>
