<svg width="111" height="105" viewBox="0 0 111 105" fill="none" xmlns="http://www.w3.org/2000/svg">
<path d="M99.3799 72.0529L89.2581 52.9068C88.8464 52.1284 88.1247 51.5365 87.2517 51.2615C86.3787 50.9864 85.4259 51.0507 84.603 51.4401C83.7801 51.8295 83.1544 52.5122 82.8637 53.338C82.5729 54.1638 82.6408 55.0651 83.0525 55.8435L93.1743 74.9896C93.5145 75.6327 93.6751 76.3473 93.641 77.0656C93.6068 77.7839 93.3791 78.4821 92.9793 79.0937C92.5796 79.7053 92.0211 80.21 91.3571 80.5599C90.693 80.9098 89.9454 81.0932 89.1852 81.0927H74.7136L76.7186 79.1962C77.369 78.5796 77.7338 77.7439 77.7329 76.8728C77.7319 76.0018 77.3652 75.1668 76.7134 74.5516C76.0616 73.9363 75.1781 73.5912 74.2573 73.5921C73.3365 73.593 72.4538 73.9399 71.8033 74.5565L63.8738 82.0541C63.2235 82.6695 62.8582 83.5039 62.8582 84.374C62.8582 85.2441 63.2235 86.0785 63.8738 86.6938L71.8033 94.1948C72.4576 94.7925 73.3338 95.1232 74.2433 95.1157C75.1528 95.1083 76.0228 94.7632 76.6659 94.1548C77.309 93.5464 77.6738 92.7234 77.6817 91.8631C77.6896 91.0028 77.34 90.1739 76.7082 89.5551L74.6997 87.6552H89.1748C91.1178 87.6559 93.0287 87.1867 94.726 86.292C96.4232 85.3973 97.8505 84.1069 98.872 82.5435C99.8936 80.9801 100.476 79.1955 100.563 77.3594C100.65 75.5233 100.239 73.6966 99.3695 72.0529H99.3799ZM46.5162 81.0829H23.8826C23.1209 81.0821 22.3721 80.897 21.7074 80.5451C21.0427 80.1933 20.4842 79.6864 20.0851 79.0727C19.686 78.4591 19.4595 77.759 19.4272 77.0391C19.3948 76.3193 19.5578 75.6036 19.9004 74.9601L26.3107 62.5898L27.2577 65.2738C27.4016 65.6832 27.6294 66.0617 27.928 66.3878C28.2266 66.7139 28.5901 66.9811 28.9979 67.1743C29.4057 67.3675 29.8497 67.4828 30.3046 67.5137C30.7595 67.5445 31.2163 67.4903 31.6491 67.3541C32.0818 67.218 32.482 67.0025 32.8267 66.7201C33.1714 66.4376 33.454 66.0937 33.6582 65.708C33.8624 65.3222 33.9843 64.9022 34.0169 64.4719C34.0495 64.0416 33.9922 63.6094 33.8483 63.2001L30.2824 53.1562C29.9912 52.3308 29.3653 51.6486 28.5424 51.2598C27.7195 50.8709 26.767 50.8071 25.8944 51.0824L15.2627 54.4359C14.3887 54.7122 13.6666 55.3056 13.2551 56.0855C12.8437 56.8655 12.7766 57.7681 13.0687 58.5948C13.3608 59.4216 13.9881 60.1047 14.8127 60.4939C15.6372 60.8831 16.5914 60.9465 17.4654 60.6702L20.0149 59.8663L13.6879 72.0726C12.82 73.716 12.4106 75.542 12.4985 77.3772C12.5864 79.2124 13.1686 80.9958 14.19 82.5583C15.2113 84.1208 16.6379 85.4105 18.3343 86.3048C20.0307 87.1991 21.9405 87.6685 23.8826 87.6684H46.5127C47.4327 87.6684 48.3149 87.3227 48.9655 86.7073C49.616 86.0919 49.9814 85.2574 49.9814 84.3871C49.9814 83.5169 49.616 82.6823 48.9655 82.0669C48.3149 81.4516 47.4327 81.1059 46.5127 81.1059L46.5162 81.0829ZM74.2592 38.9582C74.5665 39.0386 74.8839 39.0794 75.2027 39.0796C75.9585 39.0792 76.6934 38.8453 77.2957 38.4135C77.8981 37.9818 78.3348 37.3757 78.5396 36.6876L81.5713 26.4731C81.8202 25.635 81.7069 24.7378 81.2564 23.9787C80.806 23.2197 80.0552 22.661 79.1692 22.4256C78.2833 22.1902 77.3348 22.2974 76.5324 22.7235C75.73 23.1496 75.1394 23.8599 74.8905 24.6979L73.9713 27.7987L67.0338 15.3496C66.0911 13.741 64.7261 12.3892 63.0705 11.4248C61.4148 10.4604 59.5244 9.91584 57.5815 9.84368C55.6366 9.7462 53.6986 10.1309 51.9591 10.9596C50.2197 11.7883 48.7393 13.0324 47.6643 14.5687L34.9722 32.2874C34.4573 33.0081 34.2661 33.8926 34.4404 34.7466C34.6147 35.6006 35.1403 36.3542 35.9018 36.8418C36.6632 37.3291 37.598 37.5105 38.5008 37.3463C39.4035 37.182 40.2004 36.6855 40.7164 35.9657L53.4086 18.247C53.8309 17.6582 54.4038 17.18 55.0739 16.8568C55.744 16.5337 56.4897 16.3761 57.2415 16.3986C57.9933 16.4212 58.7269 16.6233 59.374 16.986C60.0211 17.3488 60.5607 17.8604 60.9427 18.4734L67.5611 30.3515L65.3445 29.7609C64.4568 29.5268 63.507 29.6359 62.7043 30.0641C61.9016 30.4924 61.3116 31.2048 61.0641 32.0446C60.8166 32.8844 60.9319 33.7828 61.3847 34.5421C61.8375 35.3015 62.5906 35.8596 63.4783 36.0937L74.2592 38.9582Z" fill="#50B748"/>
</svg>
